<svg width="22" height="22" viewBox="0 0 22 22" fill="none" xmlns="http://www.w3.org/2000/svg">
<path d="M7.49414 0L7.00195 2.52148C6.17395 2.83448 5.41886 3.2695 4.75586 3.8125L2.33398 2.97852L0 7.02148L1.93945 8.70898V8.71094C1.86345 9.18194 1.82617 9.604 1.82617 10C1.82617 10.396 1.86345 10.819 1.93945 11.291L0 12.9785L2.33398 17.0195L4.75586 16.1855V16.1875C5.36986 16.6905 6.06917 17.0885 6.82617 17.3945V15.1914C6.54217 15.0294 6.27339 14.8466 6.02539 14.6426L5.16211 13.9316L3.24023 14.5938L2.55469 13.4062L4.0918 12.0703L3.91406 10.9727C3.85506 10.6067 3.82617 10.289 3.82617 10C3.82617 9.711 3.85406 9.39434 3.91406 9.02734L4.0918 7.92773L2.55469 6.59375L3.24023 5.40625L5.16211 6.06836L6.02539 5.35938C6.51839 4.95437 7.08498 4.62858 7.70898 4.39258L8.75195 3.99805L9.14062 2H10.5098L10.9004 3.99805L11.9434 4.39453C12.5674 4.62953 13.134 4.95442 13.627 5.35742L14.4902 6.07031L16.4121 5.4082L17.0977 6.59375L15.5605 7.92969L15.7383 9.0293C15.7973 9.3943 15.8262 9.711 15.8262 10H17.8262C17.8262 9.604 17.7889 9.18098 17.7129 8.70898L19.6523 7.02148L17.3184 2.98047L14.8965 3.8125C14.2335 3.2695 13.4784 2.83348 12.6504 2.52148L12.1582 0H7.49414ZM9.82617 6C7.62017 6 5.82617 7.794 5.82617 10C5.82617 11.111 6.28263 12.1158 7.01562 12.8418C7.22662 12.1478 7.61277 11.5356 8.13477 11.0586C7.94177 10.7506 7.82617 10.389 7.82617 10C7.82617 8.897 8.72317 8 9.82617 8C10.9292 8 11.8262 8.897 11.8262 10H13.8262C13.8262 7.794 12.0322 6 9.82617 6ZM10.8262 12C9.72117 12 8.82617 12.895 8.82617 14V22H21.8262V14C21.8262 12.895 20.9312 12 19.8262 12H10.8262ZM17.4121 14L18.8262 15.4141L15.2402 19H11.8262V17H14.4121L17.4121 14Z" fill="white"/>
</svg>
