<svg width="20" height="19" viewBox="0 0 20 19" fill="none" xmlns="http://www.w3.org/2000/svg">
<path fill-rule="evenodd" clip-rule="evenodd" d="M16 17V2H18V17H16ZM14 1C14 0.447715 14.4477 0 15 0H19C19.5523 0 20 0.447715 20 1V18C20 18.5523 19.5523 19 19 19H15C14.4477 19 14 18.5523 14 18V1ZM9 8V17H11V8H9ZM8 6C7.44772 6 7 6.44772 7 7V18C7 18.5523 7.44772 19 8 19H12C12.5523 19 13 18.5523 13 18V7C13 6.44772 12.5523 6 12 6H8ZM2 15V17H4V15H2ZM1 13C0.447715 13 0 13.4477 0 14V18C0 18.5523 0.447715 19 1 19H5C5.55228 19 6 18.5523 6 18V14C6 13.4477 5.55228 13 5 13H1Z" fill="white"/>
</svg>
