<svg width="22" height="22" viewBox="0 0 22 22" fill="none" xmlns="http://www.w3.org/2000/svg">
<path d="M11 0C4.92652 0 0 4.92652 0 11C0 17.0735 4.92652 22 11 22C17.0735 22 22 17.0735 22 11C22 4.92652 17.0735 0 11 0ZM11 2.30732C15.7991 2.30732 19.6927 6.20091 19.6927 11C19.6927 15.7991 15.7991 19.6927 11 19.6927C6.20091 19.6927 2.30732 15.7991 2.30732 11C2.30732 6.20091 6.20091 2.30732 11 2.30732ZM10.839 3.00488C10.5137 3.07866 10.289 3.37043 10.3024 3.70244V4.56098C10.3024 4.94665 10.6143 5.25854 11 5.25854C11.3857 5.25854 11.6976 4.94665 11.6976 4.56098V3.70244C11.7009 3.50122 11.6204 3.31006 11.4695 3.17256C11.3186 3.03842 11.1174 2.97805 10.9195 3.00488C10.8927 3.00488 10.8659 3.00488 10.839 3.00488ZM7.2439 3.97073C7.22713 3.97744 7.20701 3.9875 7.19024 3.99756C6.97896 4.04787 6.80122 4.19878 6.71738 4.4C6.63354 4.60122 6.65031 4.82927 6.76098 5.01707L7.19024 5.76829C7.30762 5.99634 7.53902 6.14055 7.7939 6.1439C8.04878 6.1439 8.28689 6.0064 8.40762 5.78171C8.52835 5.55701 8.51494 5.28201 8.37073 5.07073L7.94146 4.34634C7.82409 4.11494 7.58598 3.96738 7.32439 3.97073C7.29756 3.97073 7.27073 3.97073 7.2439 3.97073ZM14.5146 3.99756C14.3201 4.04116 14.1524 4.1686 14.0585 4.34634L13.6293 5.07073C13.4851 5.28201 13.4716 5.55701 13.5924 5.78171C13.7131 6.0064 13.9512 6.1439 14.2061 6.1439C14.461 6.14055 14.6924 5.99634 14.8098 5.76829L15.239 5.01707C15.3732 4.78567 15.3598 4.4939 15.2055 4.27256C15.0479 4.05457 14.7796 3.94726 14.5146 3.99756ZM4.56098 6.65366C4.26585 6.69726 4.03445 6.9253 3.9875 7.22043C3.9372 7.5122 4.08476 7.80396 4.34634 7.94146L5.07073 8.37073C5.28201 8.51494 5.55701 8.52835 5.78171 8.40762C6.0064 8.28689 6.1439 8.04878 6.1439 7.7939C6.14055 7.53902 5.99634 7.30762 5.76829 7.19024L5.01707 6.76098C4.9064 6.69055 4.77561 6.65366 4.64146 6.65366C4.61463 6.65366 4.5878 6.65366 4.56098 6.65366ZM18.1634 6.76098L11.5902 9.57805C11.4091 9.50427 11.2046 9.4439 11 9.4439C10.1415 9.4439 9.4439 10.1415 9.4439 11C9.4439 11.8585 10.1415 12.5561 11 12.5561C11.7948 12.5561 12.4387 11.9591 12.5293 11.1878L18.2439 6.92195L18.1634 6.76098ZM3.46098 10.3024C3.0753 10.3695 2.81707 10.7351 2.88415 11.1207C2.95122 11.5064 3.31677 11.7646 3.70244 11.6976H4.56098C4.94665 11.6976 5.25854 11.3857 5.25854 11C5.25854 10.6143 4.94665 10.3024 4.56098 10.3024H3.70244C3.67561 10.3024 3.64878 10.3024 3.62195 10.3024C3.59512 10.3024 3.56829 10.3024 3.54146 10.3024C3.51463 10.3024 3.4878 10.3024 3.46098 10.3024ZM17.1976 10.3024C16.8119 10.3695 16.5537 10.7351 16.6207 11.1207C16.6878 11.5064 17.0534 11.7646 17.439 11.6976H18.2976C18.6832 11.6976 18.9951 11.3857 18.9951 11C18.9951 10.6143 18.6832 10.3024 18.2976 10.3024H17.439C17.4122 10.3024 17.3854 10.3024 17.3585 10.3024C17.3317 10.3024 17.3049 10.3024 17.278 10.3024C17.2512 10.3024 17.2244 10.3024 17.1976 10.3024ZM5.3122 13.522C5.225 13.5421 5.14451 13.579 5.07073 13.6293L4.34634 14.0585C4.09482 14.1558 3.92043 14.3905 3.90366 14.6622C3.89024 14.9305 4.03445 15.1854 4.27256 15.3095C4.51402 15.4335 4.80579 15.4067 5.01707 15.239L5.76829 14.8098C6.05 14.6555 6.1875 14.3235 6.09695 14.0149C6.0064 13.7064 5.71463 13.5018 5.39268 13.522C5.36585 13.522 5.33902 13.522 5.3122 13.522ZM16.4463 13.522C16.1512 13.5655 15.9198 13.7936 15.8729 14.0887C15.8226 14.3805 15.9701 14.6723 16.2317 14.8098L16.9829 15.239C17.1942 15.4067 17.486 15.4335 17.7274 15.3095C17.9655 15.1854 18.1098 14.9305 18.0963 14.6622C18.0796 14.3905 17.9052 14.1558 17.6537 14.0585L16.9293 13.6293C16.8085 13.5521 16.6677 13.5152 16.5268 13.522C16.5 13.522 16.4732 13.522 16.4463 13.522Z" fill="white"/>
</svg>
