<svg width="16" height="15" viewBox="0 0 16 15" fill="none" xmlns="http://www.w3.org/2000/svg">
<path d="M1.86356 0.333496C1.1136 0.333496 0.5 0.970958 0.5 1.75008V10.2496C0.5 11.0287 1.1136 11.6662 1.86356 11.6662H6.8371C6.61348 10.887 6.56154 10.0305 6.75721 9.13872C7.17582 7.22917 8.68582 5.71317 10.5416 5.37177C11.8854 5.12458 13.1464 5.46632 14.1356 6.18382V3.16666C14.1356 2.38754 13.522 1.75008 12.7721 1.75008H7.88241C7.52107 1.75008 7.174 1.60067 6.91833 1.33506L6.35373 0.74851C6.09806 0.482901 5.75099 0.333496 5.38965 0.333496H1.86356ZM11.4098 6.70812C9.56221 6.70812 7.99959 8.33149 7.99959 10.251C7.99959 12.2335 9.49951 13.791 11.4085 13.791C12.0903 13.791 12.7726 13.578 13.318 13.2238L14.3474 14.2946C14.6112 14.5687 15.0383 14.5687 15.3021 14.2946C15.566 14.0205 15.566 13.5768 15.3021 13.3027L14.2715 12.2333C14.6123 11.6667 14.8174 10.9579 14.8174 10.2496C14.8174 8.26636 13.3181 6.70812 11.4098 6.70812ZM11.4085 8.1247C12.5675 8.1247 13.4538 9.04548 13.4538 10.2496C13.4538 11.4537 12.5675 12.3744 11.4085 12.3744C10.2495 12.3744 9.36316 11.4537 9.36316 10.2496C9.36316 9.04548 10.2495 8.1247 11.4085 8.1247Z" fill="#818FAF"/>
</svg>
