<svg width="21" height="20" viewBox="0 0 21 20" fill="none" xmlns="http://www.w3.org/2000/svg">
<path d="M10.8439 0C8.71479 0 6.74664 0.682146 5.13263 1.81803C5.04307 1.88098 4.96679 1.96095 4.90814 2.05338C4.84949 2.1458 4.80961 2.24888 4.7908 2.35671C4.77198 2.46455 4.77459 2.57504 4.79847 2.68187C4.82235 2.78869 4.86705 2.88977 4.92999 2.97933C4.99294 3.06889 5.07291 3.14517 5.16533 3.20382C5.25776 3.26247 5.36084 3.30234 5.46867 3.32116C5.57651 3.33998 5.687 3.33737 5.79382 3.31349C5.90065 3.2896 6.00173 3.24491 6.09129 3.18197C7.44227 2.23119 9.06966 1.66667 10.8439 1.66667C15.456 1.66667 19.1772 5.38789 19.1772 10C19.1772 14.6121 15.456 18.3333 10.8439 18.3333C9.06966 18.3333 7.44227 17.7688 6.09129 16.818C5.91042 16.6909 5.68646 16.6408 5.46867 16.6788C5.25089 16.7168 5.05712 16.8398 4.92999 17.0207C4.80287 17.2015 4.7528 17.4255 4.7908 17.6433C4.8288 17.8611 4.95176 18.0548 5.13263 18.182C6.74664 19.3179 8.71479 20 10.8439 20C16.3568 20 20.8439 15.5129 20.8439 10C20.8439 4.48711 16.3568 0 10.8439 0ZM4.16095 5.8252C3.94445 5.83165 3.73897 5.92213 3.58803 6.07747L0.327941 9.33756C0.225847 9.41545 0.14313 9.51586 0.0862446 9.63098C0.0293588 9.7461 -0.000156926 9.87281 6.27451e-07 10.0012C0.000158181 10.1296 0.0299848 10.2563 0.087153 10.3712C0.144321 10.4862 0.227284 10.5864 0.329569 10.6641L3.58803 13.9225C3.66482 14.0025 3.75679 14.0664 3.85857 14.1103C3.96034 14.1543 4.06987 14.1776 4.18074 14.1787C4.2916 14.1798 4.40158 14.1588 4.50423 14.1169C4.60688 14.075 4.70013 14.013 4.77853 13.9346C4.85693 13.8562 4.9189 13.763 4.9608 13.6603C5.00271 13.5577 5.02372 13.4477 5.02259 13.3368C5.02146 13.226 4.99822 13.1164 4.95424 13.0147C4.91025 12.9129 4.8464 12.8209 4.76642 12.7441L2.85561 10.8333H11.6772C11.7877 10.8349 11.8973 10.8145 11.9998 10.7733C12.1022 10.7321 12.1955 10.671 12.2741 10.5935C12.3528 10.5159 12.4152 10.4235 12.4579 10.3217C12.5005 10.2198 12.5224 10.1104 12.5224 10C12.5224 9.88956 12.5005 9.78023 12.4579 9.67834C12.4152 9.57646 12.3528 9.48407 12.2741 9.40653C12.1955 9.329 12.1022 9.26786 11.9998 9.22668C11.8973 9.18551 11.7877 9.1651 11.6772 9.16667H2.85561L4.76642 7.25586C4.88684 7.13881 4.96909 6.98811 5.00238 6.82351C5.03568 6.65891 5.01848 6.48809 4.95303 6.33343C4.88758 6.17878 4.77693 6.0475 4.63559 5.95681C4.49425 5.86612 4.32881 5.82024 4.16095 5.8252Z" fill="white"/>
</svg>
