<svg width="49" height="51" viewBox="0 0 49 51" fill="none" xmlns="http://www.w3.org/2000/svg">
<path opacity="0.2" d="M43.1354 50.1751L43.3138 50.3569L43.4922 50.1751L48.1784 45.4015L48.3506 45.2261L48.1782 45.051L34.9586 31.6195C37.3162 28.3975 38.7397 24.4305 38.7397 20.0946C38.7397 9.40445 30.2504 0.75 19.7449 0.75C9.23938 0.75 0.75 9.40445 0.75 20.0946C0.75 30.7847 9.23938 39.4391 19.7449 39.4391C23.4228 39.4391 26.8317 38.3611 29.7357 36.5255L43.1354 50.1751ZM19.7449 5.74284C27.5406 5.74284 33.8292 12.142 33.8292 20.0946C33.8292 28.0471 27.5406 34.4463 19.7449 34.4463C11.9491 34.4463 5.66056 28.0471 5.66056 20.0946C5.66056 12.142 11.9491 5.74284 19.7449 5.74284Z" fill="#818FAF" stroke="#818FAF" stroke-width="0.5"/>
</svg>
