<svg width="12" height="12" viewBox="0 0 12 12" fill="none" xmlns="http://www.w3.org/2000/svg">
<path d="M4.67622 0C2.09097 0 0 2.09097 0 4.67622C0 7.26146 2.09097 9.35244 4.67622 9.35244C5.59921 9.35244 6.45344 9.08166 7.17765 8.62178L10.5559 12L11.7249 10.8309L8.38969 7.5043C8.98926 6.71776 9.35244 5.74319 9.35244 4.67622C9.35244 2.09097 7.26146 0 4.67622 0ZM4.67622 1.10029C6.65652 1.10029 8.25215 2.69592 8.25215 4.67622C8.25215 6.65652 6.65652 8.25215 4.67622 8.25215C2.69592 8.25215 1.10029 6.65652 1.10029 4.67622C1.10029 2.69592 2.69592 1.10029 4.67622 1.10029Z" fill="#818FAF"/>
</svg>
