<svg width="22" height="22" viewBox="0 0 22 22" fill="none" xmlns="http://www.w3.org/2000/svg">
<path d="M11 0C9.5942 0 8.07943 2.1571 7.24453 5.5H14.7555C13.9206 2.1571 12.4058 0 11 0ZM6.6666 0.891602C4.4842 1.831 2.67247 3.4606 1.48887 5.5H4.96289C5.35449 3.6982 5.9362 2.1324 6.6666 0.891602ZM15.3334 0.891602C16.0627 2.1324 16.6455 3.6982 17.0371 5.5H20.5111C19.3275 3.4606 17.5158 1.831 15.3334 0.891602ZM0.507031 7.7C0.179231 8.7428 0 9.8505 0 11C0 12.1495 0.179231 13.2572 0.507031 14.3H4.5998C4.4744 13.2495 4.4 12.1506 4.4 11C4.4 9.8494 4.4744 8.7505 4.5998 7.7H0.507031ZM6.82129 7.7C6.67939 8.7329 6.6 9.8395 6.6 11C6.6 12.1605 6.67939 13.2671 6.82129 14.3H15.1787C15.3195 13.2671 15.4 12.1605 15.4 11C15.4 9.8395 15.3206 8.7329 15.1787 7.7H6.82129ZM17.4002 7.7C17.5256 8.7505 17.6 9.8494 17.6 11C17.6 12.1506 17.5256 13.2495 17.4002 14.3H21.493C21.8219 13.2572 22 12.1495 22 11C22 9.8505 21.8219 8.7428 21.493 7.7H17.4002ZM1.48887 16.5C2.67247 18.5394 4.4842 20.169 6.6666 21.1084C5.9373 19.8676 5.35449 18.3018 4.96289 16.5H1.48887ZM7.24453 16.5C8.07943 19.8429 9.5942 22 11 22C12.4058 22 13.9206 19.8429 14.7555 16.5H7.24453ZM17.0371 16.5C16.6455 18.3018 16.0638 19.8676 15.3334 21.1084C17.5158 20.169 19.3275 18.5394 20.5111 16.5H17.0371Z" fill="#52525D"/>
</svg>
